# xmcd
#
# Track frame offsets:
#	150
#	22829
#	39999
#	57425
#	72547
#	89642
#	107844
#	121473
#	140436
#	160395
#	199760
#
# Disc length: 2977 seconds
#
# Revision: 1
# Processed by: cddbd v1.4PL0 Copyright (c) Steve Scherf et al.
# Submitted via: audiograbber 1.80
#
DISCID=9d0b9f0b
DTITLE=Ηρώ - Κοίτα με αντέχω
DYEAR=1900
DGENRE=
TTITLE0=Δεν μένω εδώ
TTITLE1=Κοίτα με, αντέχω
TTITLE2=Μια επαφή
TTITLE3=Πρώην μου αγάπη
TTITLE4=Πάμε βόλτα
TTITLE5=Τί να πώ πια και εγώ
TTITLE6=Μη μου πείς πάλι τα ίδια
TTITLE7=Το τυχερό μου αστέρι
TTITLE8=Σ' αγάπησα κι αυτό αρκεί
TTITLE9=Θα είμαι εδώ
TTITLE10=Δίπλα μου εσύ
EXTD=
EXTT0=
EXTT1=
EXTT2=
EXTT3=
EXTT4=
EXTT5=
EXTT6=
EXTT7=
EXTT8=
EXTT9=
EXTT10=
PLAYORDER=
